<?xml version="1.0" standalone="no"?>
<!DOCTYPE svg PUBLIC "-//W3C//DTD SVG 20010904//EN"
 "http://www.w3.org/TR/2001/REC-SVG-20010904/DTD/svg10.dtd">
<svg version="1.0" xmlns="http://www.w3.org/2000/svg"
 width="2966.000000pt" height="2966.000000pt" viewBox="0 0 2966.000000 2966.000000"
 preserveAspectRatio="xMidYMid meet">
<metadata>
Created by potrace 1.11, written by Peter Selinger 2001-2013
</metadata>
<g transform="translate(0.000000,2966.000000) scale(0.100000,-0.100000)"
fill="#000000" stroke="none">
<path d="M13950 22511 l0 -638 -107 -12 c-295 -32 -668 -98 -895 -157 -54 -14
-102 -24 -107 -22 -5 1 -86 102 -181 223 -94 121 -175 219 -181 217 -5 -1 -9
3 -9 8 0 7 -299 9 -902 8 l-903 -3 -77 -24 -78 -23 0 -3463 0 -3463 -22 -5
c-13 -3 -96 -9 -185 -13 -112 -4 -163 -10 -163 -18 0 -36 34 -276 56 -394 54
-296 137 -573 250 -836 l64 -149 0 -1074 0 -1074 973 3 c895 3 975 4 990 20
15 14 17 42 17 200 l0 184 199 -67 c321 -107 734 -199 1086 -244 72 -9 140
-18 153 -21 l22 -4 0 -669 0 -668 40 -18 c22 -10 40 -22 40 -27 0 -4 140 -8
310 -8 l310 0 0 671 c0 573 2 670 14 666 8 -3 179 -9 380 -13 l366 -7 0 -632
0 -631 45 -22 c44 -21 57 -22 350 -22 l305 0 0 673 0 673 165 17 c456 49 868
135 1253 263 107 35 196 64 199 64 2 0 1 -86 -3 -191 l-7 -190 975 3 c897 3
976 4 991 20 16 15 17 170 18 2240 l0 2223 21 -45 c41 -90 118 -341 143 -462
13 -68 32 -182 40 -254 18 -151 20 -481 4 -640 -22 -228 -88 -516 -164 -719
-20 -53 -34 -99 -32 -101 12 -13 115 304 150 466 129 580 85 1187 -122 1694
l-41 99 0 2996 c0 1648 -4 3002 -8 3009 -7 10 -192 12 -908 9 l-899 -3 -82
-25 -82 -24 -205 -248 c-113 -136 -208 -247 -212 -247 -19 0 -134 35 -134 41
0 4 -10 5 -22 1 -15 -3 -19 -2 -14 7 6 9 0 10 -21 6 -22 -5 -25 -4 -13 5 12 9
7 10 -20 5 -22 -4 -30 -3 -22 3 29 20 -462 130 -778 175 l-165 24 -3 626 c-2
555 -4 627 -17 627 -9 0 -33 9 -55 20 -37 19 -59 20 -335 20 l-295 0 0 -618 0
-617 -380 0 -380 0 0 598 c0 531 -2 597 -15 597 -9 0 -33 9 -55 20 -37 19 -59
20 -335 20 l-295 0 0 -639z m680 -6 l0 -595 -72 0 c-81 0 -370 -16 -460 -26
l-58 -6 0 611 0 611 295 0 295 0 0 -595z m1470 -26 l0 -622 -42 6 c-24 3 -140
13 -258 22 -118 9 -234 19 -257 21 l-43 5 0 595 0 594 300 0 300 0 0 -621z
m-1108 -646 c-51 -2 -132 -2 -180 0 -48 1 -6 3 93 3 99 0 138 -2 87 -3z m835
-4 c98 -6 212 -14 253 -19 86 -10 -68 -5 -515 15 l-280 12 182 2 c100 0 262
-4 360 -10z m-1149 -6 c-26 -2 -71 -2 -100 0 -29 2 -8 3 47 3 55 0 79 -1 53
-3z m-193 -10 c-438 -37 -603 -56 -855 -99 -174 -30 -413 -84 -570 -129 -132
-39 -163 -39 -38 -1 226 70 602 147 913 186 234 29 437 48 520 47 39 0 52 -2
30 -4z m1250 -8 c485 -21 739 -48 1070 -111 155 -29 454 -101 474 -113 10 -7
-165 -224 -720 -890 -403 -485 -738 -879 -744 -877 -5 3 -46 21 -90 40 -371
163 -1000 188 -1389 55 -84 -29 -89 -30 -101 -12 -8 10 -299 383 -648 828
-420 536 -631 812 -623 817 22 13 258 76 398 107 650 145 1446 197 2373 156z
m498 -12 c-13 -2 -33 -2 -45 0 -13 2 -3 4 22 4 25 0 35 -2 23 -4z m95 -10
c-10 -2 -28 -2 -40 0 -13 2 -5 4 17 4 22 1 32 -1 23 -4z m80 -10 c-10 -2 -28
-2 -40 0 -13 2 -5 4 17 4 22 1 32 -1 23 -4z m80 -10 c-10 -2 -28 -2 -40 0 -13
2 -5 4 17 4 22 1 32 -1 23 -4z m70 -10 c-10 -2 -26 -2 -35 0 -10 3 -2 5 17 5
19 0 27 -2 18 -5z m65 -10 c-7 -2 -21 -2 -30 0 -10 3 -4 5 12 5 17 0 24 -2 18
-5z m60 -10 c-7 -2 -21 -2 -30 0 -10 3 -4 5 12 5 17 0 24 -2 18 -5z m60 -10
c-7 -2 -21 -2 -30 0 -10 3 -4 5 12 5 17 0 24 -2 18 -5z m50 -10 c-7 -2 -19 -2
-25 0 -7 3 -2 5 12 5 14 0 19 -2 13 -5z m87 -13 c20 -6 21 -8 5 -8 -11 0 -33
4 -50 8 -27 7 -27 8 -5 8 14 0 36 -4 50 -8z m63 -17 c-7 -2 -19 -2 -25 0 -7 3
-2 5 12 5 14 0 19 -2 13 -5z m77 -13 c20 -6 21 -8 5 -8 -11 0 -31 4 -45 8 -20
6 -21 8 -5 8 11 0 31 -4 45 -8z m-1700 -1714 c47 -9 86 -16 88 -16 1 0 2 -143
2 -317 l0 -318 -113 -135 c-63 -74 -131 -150 -152 -169 -34 -30 -43 -33 -82
-27 -60 8 -131 46 -179 98 -23 23 -85 99 -138 166 l-96 124 0 303 0 304 38 4
c83 11 548 -2 632 -17z m-690 -278 c0 -175 -4 -278 -9 -272 -5 5 -89 110 -185
233 -125 159 -172 227 -164 233 42 26 261 85 326 87 l32 1 0 -282z m1033 168
c116 -74 124 -81 107 -103 -51 -63 -262 -313 -265 -313 -3 0 -5 110 -5 245 l0
244 45 -14 c25 -7 78 -34 118 -59z m2046 -893 c6 -21 11 -66 11 -99 0 -56 -2
-62 -22 -68 -30 -8 -188 -8 -188 0 0 15 169 204 182 204 4 0 12 -17 17 -37z
m-5148 -216 c19 -23 493 -593 1054 -1267 560 -674 1036 -1245 1059 -1269 82
-87 185 -129 285 -116 31 4 82 6 114 5 74 -2 159 23 220 63 35 24 248 272 808
944 l759 912 53 -15 c210 -61 354 -106 565 -176 l242 -81 0 -2873 0 -2872
-132 -46 c-715 -248 -1594 -356 -2668 -326 -933 27 -1641 132 -2243 334 l-182
61 0 1575 0 1575 450 27 c248 15 468 27 489 25 l39 -2 18 -106 c55 -328 162
-623 305 -842 86 -133 279 -327 414 -416 316 -210 657 -304 1110 -304 276 0
487 29 682 94 153 51 367 167 352 191 -5 7 -3 8 5 4 15 -10 53 23 44 37 -4 6
-1 7 6 2 16 -9 164 134 157 152 -3 6 3 17 12 25 16 12 16 11 2 -7 -15 -20 -14
-20 8 -1 23 20 31 42 10 30 -8 -4 -10 -3 -5 2 5 5 14 9 20 9 7 0 11 8 11 17
-1 10 3 16 10 15 6 -1 10 6 10 15 -1 10 2 15 7 13 13 -8 50 71 43 92 -4 14 -4
15 4 4 13 -18 57 115 73 219 16 106 -6 340 -31 325 -4 -3 -6 5 -2 17 3 13 1
19 -5 15 -7 -4 -9 0 -6 11 6 26 -66 162 -133 249 -64 83 -162 177 -244 233
-72 49 -223 130 -242 130 -8 0 -59 18 -113 40 -54 22 -101 40 -104 40 -3 0 36
-23 88 -50 52 -28 100 -55 108 -61 11 -9 13 -149 13 -755 l0 -743 -32 -24
c-51 -38 -155 -92 -243 -126 -86 -34 -305 -92 -317 -84 -5 2 -8 447 -8 988 0
541 -4 986 -8 989 -42 26 -843 211 -857 198 -3 -3 -5 -493 -5 -1090 l0 -1084
-42 7 c-126 21 -319 123 -485 258 l-63 50 0 993 c0 546 -3 999 -6 1008 -3 9
-12 16 -20 16 -7 0 -122 31 -256 70 -416 119 -808 258 -1130 403 l-138 61 0
1095 c0 603 3 1106 6 1119 9 32 24 27 65 -21z m5169 -477 c0 -369 -3 -510 -11
-510 -6 0 -73 22 -149 49 -75 27 -226 77 -336 110 -109 34 -206 64 -214 68 -8
3 -21 5 -27 4 -7 -1 -13 2 -13 6 0 4 -15 9 -32 10 -18 2 -34 7 -36 12 -2 6
-10 7 -18 4 -8 -3 -14 1 -14 9 0 8 135 176 299 373 337 404 296 371 459 374
l92 1 0 -510z m-4920 -1867 c331 -132 610 -228 930 -321 l205 -59 2 -964 2
-964 -25 30 c-84 98 -154 206 -215 330 -98 202 -163 409 -207 669 l-18 108
-100 38 c-148 56 -142 54 -147 28 -4 -20 -4 -19 -6 5 -1 27 -2 28 -48 22 -27
-2 -176 -12 -333 -20 -157 -8 -302 -17 -322 -19 l-38 -4 0 625 c0 343 3 623 8
621 4 -1 144 -58 312 -125z m2043 -592 c212 -46 370 -83 480 -112 l77 -21 0
-1004 0 -1003 -37 -8 c-64 -14 -539 -9 -635 6 l-88 13 0 1084 c0 725 3 1084
10 1084 6 0 92 -18 193 -39z m1364 -496 c80 -73 180 -200 220 -279 145 -286
112 -612 -87 -878 -49 -65 -185 -199 -221 -219 -18 -9 -19 13 -19 726 0 698 1
735 18 726 9 -5 49 -39 89 -76z m-5708 -597 c0 -228 -4 -333 -10 -313 -28 90
-109 566 -109 640 0 3 40 9 98 13 l22 2 -1 -342z m-112 160 c-3 -8 -6 -5 -6 6
-1 11 2 17 5 13 3 -3 4 -12 1 -19z m6370 -320 c-2 -13 -4 -3 -4 22 0 25 2 35
4 23 2 -13 2 -33 0 -45z m-10 -110 c-3 -8 -6 -5 -6 6 -1 11 2 17 5 13 3 -3 4
-12 1 -19z m-2537 -2792 c85 -8 212 -18 283 -22 l127 -7 0 -663 0 -664 -295 0
-295 0 0 685 c0 541 3 685 13 685 6 0 82 -7 167 -14z m1880 -671 l0 -665 -300
0 -300 0 0 645 0 644 33 5 c17 3 115 8 217 12 157 5 339 17 348 22 1 1 2 -297
2 -663z"/>
<path d="M5185 17259 c-22 -4 -58 -8 -80 -8 -22 -1 -92 -13 -155 -27 -95 -22
-143 -41 -270 -105 l-155 -78 -104 -120 c-150 -174 -194 -253 -297 -536 -75
-208 -98 -289 -174 -610 -112 -472 -111 -468 -120 -478 -4 -5 -11 20 -15 55
-4 34 -9 66 -12 70 -2 4 -61 -28 -131 -71 -140 -85 -381 -227 -425 -249 -15
-7 -33 -28 -41 -45 -7 -18 -168 -354 -356 -747 -188 -393 -363 -758 -387 -810
-25 -52 -117 -245 -206 -429 -88 -184 -160 -340 -160 -345 0 -25 95 -154 143
-196 33 -29 101 -68 188 -108 l135 -63 98 7 c53 3 101 9 107 13 6 3 42 70 80
149 l70 142 63 -97 c216 -328 423 -489 641 -501 71 -4 82 -2 125 24 27 15 71
47 99 71 l51 43 49 -22 c41 -18 68 -21 169 -21 184 -1 267 31 408 156 l68 60
82 -13 c113 -17 493 -24 662 -12 513 38 808 287 920 777 40 174 67 367 80 573
4 56 10 102 14 102 3 0 53 -19 111 -41 88 -35 129 -44 255 -59 259 -32 458
-10 592 65 l43 24 4 -22 c3 -12 7 -116 10 -232 5 -212 18 -314 67 -541 23
-108 66 -201 153 -337 49 -75 66 -92 162 -161 123 -87 283 -176 364 -201 89
-28 206 -37 546 -41 l322 -5 138 35 c301 76 478 152 590 253 60 54 85 87 134
172 102 182 120 310 120 839 0 556 -35 1018 -124 1627 -61 421 -181 926 -282
1184 -59 151 -97 220 -204 366 -93 127 -138 171 -289 279 -111 80 -115 82
-296 134 -284 82 -498 85 -950 16 -92 -14 -111 -22 -228 -85 -176 -96 -296
-187 -383 -290 -84 -100 -199 -269 -244 -359 -57 -114 -133 -250 -141 -250 -4
0 -19 30 -34 67 -15 37 -87 169 -161 294 -73 124 -150 260 -170 302 -35 75
-38 78 -152 159 -156 110 -356 196 -554 239 -127 27 -153 29 -330 28 -106 -1
-211 -5 -233 -10z m1261 -694 c95 -125 102 -136 147 -265 39 -112 47 -147 47
-206 l0 -72 -44 -6 c-104 -16 -168 90 -250 412 -48 192 -53 223 -36 268 13 33
4 42 136 -131z m2749 9 c109 -144 110 -146 158 -287 39 -117 47 -152 45 -202
l-3 -59 -42 -9 c-38 -7 -48 -5 -83 20 -53 37 -105 149 -154 334 -58 218 -67
270 -54 312 6 21 14 37 17 36 3 0 56 -65 116 -145z m-5623 -1393 c52 -60 99
-83 182 -89 l72 -4 25 -159 25 -159 -99 0 c-92 0 -109 3 -213 41 -96 35 -122
50 -174 97 -69 61 -134 152 -121 165 15 15 246 147 258 147 6 0 26 -17 45 -39z
m6107 -198 c39 -262 86 -681 100 -891 6 -85 11 -303 11 -485 l0 -331 -32 -33
c-18 -18 -37 -33 -44 -33 -7 0 -28 15 -47 33 -33 32 -34 34 -50 177 -9 80 -19
210 -23 290 -3 80 -12 231 -20 335 -9 123 -14 345 -14 626 0 418 1 438 20 483
16 35 26 46 44 46 22 0 24 -7 55 -217z m-6409 7 c17 -27 63 -76 102 -109 59
-50 89 -66 182 -100 103 -38 119 -41 213 -41 l101 0 -151 -315 -151 -316 -124
126 c-68 69 -130 125 -136 125 -7 0 -42 -19 -79 -42 -61 -39 -69 -48 -85 -98
l-19 -55 122 -65 c67 -36 143 -84 170 -105 l48 -40 -144 -6 c-133 -6 -151 -9
-238 -42 -87 -33 -102 -43 -173 -114 -87 -86 -134 -167 -163 -276 -15 -54 -17
-88 -11 -178 l6 -110 -60 32 c-48 26 -75 50 -129 119 l-69 87 376 786 c207
433 377 787 378 787 1 0 16 -22 34 -50z m1059 -747 c2 -167 -65 -269 -230
-354 -58 -29 -269 -118 -269 -113 0 2 20 35 44 72 54 85 150 183 239 245 63
44 72 55 107 130 20 45 48 120 61 167 l23 85 13 -70 c6 -38 12 -111 12 -162z
m-70 137 c-27 -97 -66 -190 -92 -220 -12 -14 -52 -46 -88 -72 -80 -57 -177
-160 -225 -240 -20 -32 -40 -56 -45 -53 -28 18 2 208 46 295 35 69 157 182
295 275 69 47 126 85 127 85 1 0 -7 -31 -18 -70z m-863 -137 c144 -145 238
-254 313 -366 39 -59 71 -108 71 -111 0 -2 -13 -6 -30 -8 -25 -4 -38 5 -97 65
-115 117 -299 257 -401 307 -50 24 -92 48 -92 52 0 34 35 81 82 112 29 19 56
35 60 35 3 1 45 -38 94 -86z m274 -119 l-5 -132 -38 44 -39 45 43 89 c23 50
43 89 43 88 1 -2 -1 -62 -4 -134z m959 -209 c93 -32 175 -134 206 -253 25 -98
30 -309 11 -417 -9 -49 -22 -108 -28 -130 l-13 -40 -2 35 c-2 19 -7 130 -13
245 -11 227 -24 304 -70 394 -36 72 -80 115 -155 151 l-60 29 41 1 c23 0 60
-7 83 -15z m-2099 -562 c49 -64 73 -85 132 -118 l73 -40 6 -55 c8 -60 80 -293
110 -352 l19 -36 -64 -7 -63 -7 -156 83 c-155 84 -156 85 -222 168 -36 47 -64
88 -63 92 9 23 163 349 165 349 2 0 30 -35 63 -77z m3518 -282 c22 -13 4 -98
-34 -167 -43 -79 -147 -208 -210 -260 -64 -53 -194 -124 -228 -124 -45 0 -31
31 48 108 41 39 112 123 159 185 93 124 222 267 240 267 7 0 18 -4 25 -9z
m-3695 -127 c54 -69 62 -75 218 -158 l162 -86 78 6 c44 4 79 4 79 1 0 -4 -31
-72 -69 -151 -77 -162 -61 -148 -191 -160 -54 -5 -59 -3 -210 78 -154 82 -155
84 -221 167 l-66 85 74 154 c41 86 77 150 82 144 4 -5 33 -41 64 -80z"/>
<path d="M21715 17259 c-22 -4 -58 -8 -80 -9 -22 0 -95 -13 -162 -29 -101 -24
-146 -42 -264 -102 l-142 -74 -107 -120 c-152 -171 -200 -258 -305 -550 -74
-205 -99 -294 -175 -615 -49 -206 -116 -485 -149 -620 -56 -234 -60 -259 -90
-570 -30 -313 -31 -343 -31 -810 l0 -486 30 -124 c51 -212 117 -336 245 -464
148 -148 275 -222 460 -270 306 -79 908 -89 1170 -20 190 49 316 123 439 256
153 164 239 402 291 795 8 62 17 166 21 233 4 66 10 123 15 125 4 3 54 -13
111 -36 87 -34 127 -44 253 -59 259 -32 435 -15 577 56 26 13 52 24 58 24 6 0
10 -48 10 -132 0 -212 19 -384 67 -618 29 -137 69 -230 165 -377 45 -70 67
-92 148 -151 120 -86 285 -179 364 -204 94 -31 204 -40 550 -44 317 -5 321 -5
430 21 178 42 332 94 461 155 104 50 129 67 186 126 96 100 166 228 197 363
24 102 25 123 29 541 5 441 -3 708 -33 1025 -25 263 -90 760 -113 867 -6 24
-22 113 -36 198 -14 85 -41 209 -60 275 -18 66 -45 167 -59 225 -14 58 -32
125 -39 149 -12 37 -11 61 5 175 9 72 18 134 18 138 0 3 -8 4 -18 1 -10 -2
-51 10 -90 27 -55 25 -77 41 -98 73 -124 188 -207 275 -380 400 -72 51 -111
72 -185 95 -355 113 -565 122 -1049 46 -96 -16 -116 -23 -225 -82 -66 -36
-144 -83 -173 -104 -46 -35 -55 -38 -65 -25 -9 12 -39 16 -130 19 -108 3 -117
2 -117 -15 0 -10 5 -72 11 -138 l11 -120 -64 -96 c-34 -53 -101 -169 -148
-257 -47 -89 -90 -160 -95 -160 -6 1 -23 33 -40 72 -16 38 -82 157 -145 263
-63 107 -140 241 -170 299 l-55 104 -115 81 c-149 106 -351 193 -548 236 -123
27 -147 29 -330 28 -108 -1 -215 -5 -237 -10z m2127 -361 c-9 -9 -15 -9 -24 0
-9 9 -7 12 12 12 19 0 21 -3 12 -12z m758 -494 c-6 -14 -10 -62 -10 -107 l0
-82 -241 -170 c-133 -93 -246 -171 -253 -173 -6 -1 -89 140 -185 314 l-173
316 -14 151 c-7 84 -13 169 -14 190 l0 37 450 -225 c449 -225 450 -225 440
-251z m-1615 170 c109 -144 110 -146 158 -287 39 -117 47 -152 45 -202 l-3
-59 -42 -9 c-38 -7 -48 -5 -83 20 -53 37 -105 149 -154 334 -58 218 -67 270
-54 312 6 21 14 37 17 36 3 0 56 -65 116 -145z m2775 -9 c56 -75 101 -137 99
-139 -7 -6 -163 -56 -175 -56 -10 0 -29 67 -60 209 -16 73 -4 152 20 132 7 -6
59 -72 116 -146z m334 -157 c-3 -18 -20 -144 -38 -281 -18 -136 -35 -249 -37
-251 -20 -17 -511 -347 -513 -344 -8 10 -168 650 -164 654 5 5 736 252 750
253 4 1 5 -14 2 -31z m-1170 -1160 c3 -13 6 -41 6 -64 l0 -41 -196 -87 c-107
-48 -198 -86 -201 -83 -2 3 6 37 18 76 l23 70 165 75 c91 42 169 76 172 76 4
0 9 -10 13 -22z m1324 -345 c81 -585 102 -851 102 -1298 l-1 -320 -35 -39
c-33 -35 -38 -37 -60 -26 -52 28 -60 49 -77 190 -9 74 -21 234 -27 355 -6 121
-15 267 -20 325 -5 58 -9 311 -10 562 0 432 1 459 20 502 15 36 24 46 43 46
24 0 24 -2 65 -297z m-1296 -110 c3 -33 0 -63 -6 -69 -16 -16 -536 -247 -543
-241 -5 5 22 136 29 141 12 9 495 224 505 225 7 1 13 -21 15 -56z m-35 -479
c-4 -37 -8 -68 -9 -69 -12 -9 -592 -265 -594 -262 -7 7 13 128 22 137 11 10
565 260 578 260 5 0 6 -29 3 -66z m42 -505 c7 -34 11 -63 9 -65 -8 -7 -413
-185 -432 -189 -16 -3 -30 7 -59 43 -37 47 -37 47 -15 57 12 6 124 56 248 112
124 56 228 102 231 102 4 1 12 -26 18 -60z m-2344 -787 c-21 -142 -202 -360
-377 -455 -98 -54 -128 -59 -128 -23 0 17 19 40 65 80 35 32 97 101 137 154
89 120 169 214 228 269 36 34 48 39 63 31 16 -8 18 -17 12 -56z"/>
<path d="M7750 9130 c-3893 -9 -6645 -22 -6315 -31 1414 -40 25321 -40 26795
0 358 9 -2063 21 -6770 31 -4426 10 -8785 10 -13710 0z"/>
<path d="M9338 7870 c-229 -39 -401 -197 -464 -426 -25 -92 -30 -295 -10 -388
49 -219 198 -385 401 -448 83 -26 238 -30 325 -9 164 40 304 149 373 291 58
117 72 185 72 340 0 155 -15 223 -72 339 -107 219 -367 344 -625 301z m284
-177 c165 -78 248 -233 248 -463 0 -177 -39 -290 -131 -382 -107 -107 -274
-146 -428 -99 -78 24 -153 78 -208 149 -118 155 -120 487 -3 663 39 60 120
119 199 147 55 19 82 22 161 19 82 -2 104 -7 162 -34z"/>
<path d="M19815 7866 c-203 -40 -328 -131 -410 -301 -55 -115 -75 -205 -75
-343 0 -197 55 -346 170 -462 118 -119 264 -174 460 -174 169 1 287 37 439
134 l81 52 0 234 0 234 -265 0 -265 0 0 -75 0 -75 185 0 186 0 -3 -122 -3
-123 -91 -46 c-103 -51 -174 -69 -278 -69 -130 0 -255 49 -330 130 -88 94
-120 193 -120 365 0 236 81 388 251 468 57 26 81 31 169 35 88 4 114 1 174
-18 107 -34 172 -100 214 -215 l11 -32 72 20 c84 23 83 21 32 134 -51 115
-149 196 -289 237 -76 23 -230 29 -315 12z"/>
<path d="M3250 7230 l0 -630 80 0 80 0 2 531 3 531 180 -531 179 -531 72 0 72
0 39 113 c22 61 102 294 178 517 76 223 142 409 147 414 4 6 8 -227 8 -517 l0
-527 75 0 75 0 0 630 0 630 -108 0 -109 0 -183 -535 c-101 -294 -184 -534
-185 -533 -1 2 -82 243 -180 536 l-179 532 -123 0 -123 0 0 -630z"/>
<path d="M4750 7230 l0 -630 80 0 80 0 0 630 0 630 -80 0 -80 0 0 -630z"/>
<path d="M5200 7230 l0 -630 75 0 75 0 0 498 0 497 332 -497 331 -498 84 0 83
0 0 630 0 630 -80 0 -80 0 -2 -491 -3 -492 -328 492 -327 491 -80 0 -80 0 0
-630z"/>
<path d="M6500 7230 l0 -630 80 0 80 0 0 630 0 630 -80 0 -80 0 0 -630z"/>
<path d="M7430 7230 l0 -630 80 0 80 0 2 531 3 531 180 -531 179 -531 72 0 72
0 39 113 c22 61 102 294 178 517 76 223 142 409 147 414 4 6 8 -227 8 -517 l0
-527 75 0 75 0 0 630 0 630 -108 0 -109 0 -183 -535 c-101 -294 -184 -534
-185 -533 -1 2 -82 243 -180 536 l-179 532 -123 0 -123 0 0 -630z"/>
<path d="M10260 7230 l0 -630 75 0 75 0 0 498 0 497 332 -497 331 -498 84 0
83 0 0 630 0 630 -80 0 -80 0 -2 -491 -3 -492 -328 492 -327 491 -80 0 -80 0
0 -630z"/>
<path d="M11520 7230 l0 -630 465 0 465 0 0 75 0 75 -385 0 -385 0 0 215 0
215 345 0 345 0 0 75 0 75 -345 0 -345 0 0 190 0 190 370 0 370 0 0 75 0 75
-450 0 -450 0 0 -630z"/>
<path d="M12576 7833 c9 -16 118 -179 241 -363 l223 -335 0 -267 0 -268 80 0
80 0 0 266 0 265 231 337 c128 185 241 349 251 365 l19 27 -94 0 -94 0 -155
-237 c-85 -131 -170 -264 -188 -295 -19 -32 -37 -58 -40 -58 -3 0 -19 24 -35
54 -17 30 -100 162 -185 295 l-155 241 -99 0 -98 0 18 -27z"/>
<path d="M14300 7230 l0 -630 80 0 80 0 2 531 3 531 180 -531 179 -531 72 0
72 0 39 113 c22 61 102 294 178 517 76 223 142 409 147 414 4 6 8 -227 8 -517
l0 -527 75 0 75 0 0 630 0 630 -108 0 -109 0 -183 -535 c-101 -294 -184 -534
-185 -533 -1 2 -82 243 -180 536 l-179 532 -123 0 -123 0 0 -630z"/>
<path d="M16099 7833 c-14 -39 -456 -1194 -464 -1216 -7 -16 -1 -18 80 -15
l87 3 68 190 68 190 264 3 264 2 74 -195 74 -195 93 0 92 0 -113 278 c-62 152
-177 436 -256 630 l-144 352 -88 0 c-87 0 -89 0 -99 -27z m122 -180 c18 -55
133 -370 178 -485 l11 -28 -209 0 -209 0 73 193 c67 179 86 235 115 345 6 23
12 42 15 42 2 0 13 -30 26 -67z"/>
<path d="M16940 7230 l0 -630 75 0 75 0 0 498 0 497 332 -497 331 -498 84 0
83 0 0 630 0 630 -80 0 -80 0 -2 -491 -3 -492 -328 492 -327 491 -80 0 -80 0
0 -630z"/>
<path d="M18529 7833 c-14 -39 -456 -1194 -464 -1216 -7 -16 -1 -18 80 -15
l87 3 68 190 68 190 264 3 264 2 74 -195 74 -195 93 0 92 0 -113 278 c-62 152
-177 436 -256 630 l-144 352 -88 0 c-87 0 -89 0 -99 -27z m122 -180 c18 -55
133 -370 178 -485 l11 -28 -209 0 -209 0 73 193 c67 179 86 235 115 345 6 23
12 42 15 42 2 0 13 -30 26 -67z"/>
<path d="M20730 7230 l0 -630 465 0 465 0 0 75 0 75 -385 0 -385 0 0 215 0
215 345 0 345 0 0 75 0 75 -345 0 -345 0 0 190 0 190 370 0 370 0 0 75 0 75
-450 0 -450 0 0 -630z"/>
<path d="M21890 7230 l0 -630 80 0 80 0 2 531 3 531 180 -531 179 -531 72 0
72 0 39 113 c22 61 102 294 178 517 76 223 142 409 147 414 4 6 8 -227 8 -517
l0 -527 75 0 75 0 0 630 0 630 -108 0 -109 0 -183 -535 c-101 -294 -184 -534
-185 -533 -1 2 -82 243 -180 536 l-179 532 -123 0 -123 0 0 -630z"/>
<path d="M23350 7230 l0 -630 465 0 465 0 0 75 0 75 -385 0 -385 0 0 215 0
215 345 0 345 0 0 75 0 75 -345 0 -345 0 0 190 0 190 370 0 370 0 0 75 0 75
-450 0 -450 0 0 -630z"/>
<path d="M24520 7230 l0 -630 75 0 75 0 0 498 0 497 332 -497 331 -498 84 0
83 0 0 630 0 630 -80 0 -80 0 -2 -491 -3 -492 -328 492 -327 491 -80 0 -80 0
0 -630z"/>
<path d="M25680 7785 l0 -75 210 0 210 0 0 -555 0 -555 80 0 80 0 0 555 0 555
205 0 205 0 0 75 0 75 -495 0 -495 0 0 -75z"/>
</g>
</svg>
